# xmcd CD database file
#
# Track frame offsets:
#	150
#	12075
#	24518
#	37463
#	51625
#	65330
#	76390
#	89925
#	104088
#	115385
#	126988
#	136718
#	145928
#	160113
#	171140
#	185303
#	195728
#	206053
#	217028
#	229873
#	240938
#	251278
#	263355
#	278050
#	285888
#	298400
#	309138
#	318778
#
# Disc length: 4369 seconds
#
# Revision: 2
# Processed by: cddbd v1.5.1PL0 Copyright (c) Steve Scherf et al.
# Submitted via: CDex 1.51
#
DISCID=9c110f1c
DTITLE=J.B.Lenoir - J.B.Lenoir
DYEAR=1900
DGENRE=Blues
TTITLE0=Carrie Lee
TTITLE1=Korea blues
TTITLE2=Eisenhower blues
TTITLE3=Man watch your woman
TTITLE4=I'm in Korea
TTITLE5=Mama talk to your daughter
TTITLE6=Sitting down thinking
TTITLE7=Don't dog your woman
TTITLE8=Natural man
TTITLE9=If i give my love to you
TTITLE10=Let me die with the one i love
TTITLE11=Mama your daughter's going to miss me
TTITLE12=What have i done
TTITLE13=Mama what about your daughter
TTITLE14=We can't go on this way
TTITLE15=Give one more shot
TTITLE16=Everybody want's to know
TTITLE17=J.B.'s rock
TTITLE18=If you love me
TTITLE19=Low down dirty shame
TTITLE20=Don't touch my head
TTITLE21=When i am drinking
TTITLE22=I've been down for so long
TTITLE23=Five years
TTITLE24=Daddy talk to your son
TTITLE25=I don't know
TTITLE26=Good looking woman
TTITLE27=Voodoo boogie
EXTD=Label: MoviePlay\nCode: RTS 33027\nCollection: "ROOTS"\n(Made in Brazil)
EXTT0=
EXTT1=
EXTT2=
EXTT3=
EXTT4=
EXTT5=
EXTT6=
EXTT7=
EXTT8=
EXTT9=
EXTT10=
EXTT11=
EXTT12=
EXTT13=
EXTT14=
EXTT15=
EXTT16=
EXTT17=
EXTT18=
EXTT19=
EXTT20=
EXTT21=
EXTT22=
EXTT23=
EXTT24=
EXTT25=
EXTT26=
EXTT27=
PLAYORDER=
